<?xml version="1.0" encoding="utf-8"?>
<!-- Generator: Adobe Illustrator 26.2.1, SVG Export Plug-In . SVG Version: 6.00 Build 0)  -->
<svg version="1.1" id="icon" xmlns="http://www.w3.org/2000/svg" xmlns:xlink="http://www.w3.org/1999/xlink" x="0px" y="0px"
	 viewBox="0 0 512 512" style="enable-background:new 0 0 512 512;" xml:space="preserve">
<g>
	<path d="M189,91.6L55.3,225.3c-16.4,16.4-16.4,45,0,61.4L189,420.4c8.3,8.3,21.8,8.3,30.2,0c8.3-8.3,8.3-21.8,0-30.2l-112-112.9
		h340.5c11.8,0,21.3-9.6,21.3-21.3c0-11.7-9.5-21.3-21.3-21.3H106.4l112.8-112.9c4.2-4.2,6.2-9.6,6.2-15.1s-2.1-10.9-6.2-15.1
		C210.9,83.2,197.5,83.2,189,91.6z"/>
</g>
</svg>
