<?xml version="1.0" encoding="utf-8"?>
<!-- Generator: Adobe Illustrator 26.2.1, SVG Export Plug-In . SVG Version: 6.00 Build 0)  -->
<svg version="1.1" id="Chip" xmlns="http://www.w3.org/2000/svg" xmlns:xlink="http://www.w3.org/1999/xlink" x="0px" y="0px"
	 viewBox="0 0 512 512" style="enable-background:new 0 0 512 512;" xml:space="preserve">
<g>
	<g>
		<path d="M426.7,277.3c11.8,0,21.3-9.6,21.3-21.3s-9.5-21.3-21.3-21.3h-21.3v-21.3h21.3c11.8,0,21.3-9.6,21.3-21.3
			s-9.5-21.3-21.3-21.3h-21.3V144c0-20.6-16.8-37.3-37.3-37.3h-26.7V85.3c0-11.8-9.5-21.3-21.3-21.3s-21.3,9.6-21.3,21.3v21.3h-21.3
			V85.3c0-11.8-9.6-21.3-21.3-21.3s-21.3,9.6-21.3,21.3v21.3h-21.3V85.3c0-11.8-9.6-21.3-21.3-21.3s-21.3,9.6-21.3,21.3v21.3H144
			c-20.6,0-37.3,16.8-37.3,37.3v26.7H85.3c-11.8,0-21.3,9.6-21.3,21.3s9.6,21.3,21.3,21.3h21.3v21.3H85.3
			c-11.8,0-21.3,9.6-21.3,21.3s9.6,21.3,21.3,21.3h21.3v21.3H85.3c-11.8,0-21.3,9.5-21.3,21.3s9.6,21.3,21.3,21.3h21.3V368
			c0,20.6,16.8,37.3,37.3,37.3h26.7v21.3c0,11.8,9.6,21.3,21.3,21.3s21.3-9.5,21.3-21.3v-21.3h21.3v21.3c0,11.8,9.6,21.3,21.3,21.3
			s21.3-9.5,21.3-21.3v-21.3h21.3v21.3c0,11.8,9.5,21.3,21.3,21.3s21.3-9.5,21.3-21.3v-21.3H368c20.6,0,37.3-16.8,37.3-37.3v-26.7
			h21.3c11.8,0,21.3-9.5,21.3-21.3s-9.5-21.3-21.3-21.3h-21.3v-21.3H426.7z M362.7,362.7H149.3V149.3h213.3V362.7z"/>
		<path d="M192,320h128V192H192V320z M234.7,234.7h42.7v42.7h-42.7V234.7z"/>
	</g>
</g>
</svg>
