<?xml version="1.0" encoding="utf-8"?>
<!-- Generator: Adobe Illustrator 26.2.1, SVG Export Plug-In . SVG Version: 6.00 Build 0)  -->
<svg version="1.1" id="Heart" xmlns="http://www.w3.org/2000/svg" xmlns:xlink="http://www.w3.org/1999/xlink" x="0px" y="0px"
	 viewBox="0 0 512 512" style="enable-background:new 0 0 512 512;" xml:space="preserve">
<style type="text/css">
	.st0{fill:none;stroke:#000000;stroke-width:2;stroke-linecap:round;stroke-miterlimit:10;}
</style>
<g>
	<path class="st0" d="M448,405.3"/>
	<path class="st0" d="M64,405.3"/>
	<path class="st0" d="M448,405.3"/>
	<path class="st0" d="M64,405.3"/>
	<g>
		<path d="M256,42.7C138.4,42.7,42.7,138.4,42.7,256c0,117.6,95.7,213.3,213.3,213.3c117.6,0,213.3-95.7,213.3-213.3
			C469.3,138.4,373.6,42.7,256,42.7z M256,426.7c-94.1,0-170.7-76.6-170.7-170.7S161.9,85.3,256,85.3S426.7,161.9,426.7,256
			S350.1,426.7,256,426.7z"/>
		<path d="M320,234.7h-42.7v-85.3c0-11.8-9.6-21.3-21.3-21.3s-21.3,9.6-21.3,21.3V256c0,11.8,9.6,21.3,21.3,21.3h64
			c11.8,0,21.3-9.6,21.3-21.3S331.8,234.7,320,234.7z"/>
	</g>
</g>
</svg>
