<?xml version="1.0" encoding="utf-8"?>
<!-- Generator: Adobe Illustrator 26.2.1, SVG Export Plug-In . SVG Version: 6.00 Build 0)  -->
<svg version="1.1" xmlns="http://www.w3.org/2000/svg" xmlns:xlink="http://www.w3.org/1999/xlink" x="0px" y="0px"
	 viewBox="0 0 512 512" style="enable-background:new 0 0 512 512;" xml:space="preserve">
<style type="text/css">
	.st0{fill:none;stroke:#000000;stroke-width:2;stroke-linecap:round;stroke-miterlimit:10;}
</style>
<g id="Grid">
</g>
<g id="Download">
	<g>
		<path class="st0" d="M448,405.3"/>
		<path class="st0" d="M64,405.3"/>
		<g>
			<path d="M426.7,149.3H384c-11.8,0-21.3,9.6-21.3,21.3S372.2,192,384,192h42.7v192H85.3V192H128c11.8,0,21.3-9.6,21.3-21.3
				s-9.6-21.3-21.3-21.3H85.3c-23.5,0-42.7,19.1-42.7,42.7v192c0,23.5,19.1,42.7,42.7,42.7h341.3c23.5,0,42.7-19.1,42.7-42.7V192
				C469.3,168.5,450.2,149.3,426.7,149.3z"/>
			<path d="M240.9,331.4c4.2,4.2,9.6,6.2,15.1,6.2c5.5,0,10.9-2.1,15.1-6.2l51.5-51.5c8.3-8.3,8.3-21.8,0-30.2
				c-8.3-8.3-21.8-8.3-30.2,0l-15.1,15.1V106.7c0-11.8-9.6-21.3-21.3-21.3s-21.3,9.6-21.3,21.3v158.2l-15.1-15.1
				c-8.3-8.3-21.8-8.3-30.2,0c-8.3,8.3-8.3,21.8,0,30.2L240.9,331.4z"/>
		</g>
	</g>
</g>
</svg>
