<?xml version="1.0" encoding="utf-8"?>
<!-- Generator: Adobe Illustrator 26.2.1, SVG Export Plug-In . SVG Version: 6.00 Build 0)  -->
<svg version="1.1" xmlns="http://www.w3.org/2000/svg" xmlns:xlink="http://www.w3.org/1999/xlink" x="0px" y="0px"
	 viewBox="0 0 512 512" style="enable-background:new 0 0 512 512;" xml:space="preserve">
<style type="text/css">
	.st0{fill:none;stroke:#F15A24;stroke-width:5.000000e-02;stroke-miterlimit:10;}
	.st1{fill:none;stroke:#000000;stroke-width:2;stroke-linecap:round;stroke-miterlimit:10;}
</style>
<g id="Grid">
	<g>
		<circle class="st0" cx="256" cy="256" r="10"/>
		<path class="st0" d="M264,265h-16c-0.6,0-1-0.5-1-1v-16c0-0.6,0.5-1,1-1h16c0.6,0,1,0.5,1,1v16C265,264.5,264.5,265,264,265z"/>
		<path class="st0" d="M265,264h-18c-0.6,0-1-0.5-1-1v-14c0-0.6,0.5-1,1-1h18c0.6,0,1,0.5,1,1v14C266,263.5,265.5,264,265,264z"/>
		<path class="st0" d="M248,265v-18c0-0.6,0.5-1,1-1h14c0.6,0,1,0.5,1,1v18c0,0.6-0.5,1-1,1h-14C248.5,266,248,265.5,248,265z"/>
		<path class="st0" d="M265,266h-18c-0.6,0-1-0.5-1-1v-18c0-0.6,0.5-1,1-1h18c0.6,0,1,0.5,1,1v18C266,265.5,265.5,266,265,266z"/>
	</g>
</g>
<g id="edit">
	<g>
		<path class="st1" d="M448,405.3"/>
		<path class="st1" d="M64,405.3"/>
		<g>
			<path d="M405.3,448H106.7C83.1,448,64,428.9,64,405.3V106.7C64,83.1,83.1,64,106.7,64H256c11.8,0,21.3,9.6,21.3,21.3
				s-9.6,21.3-21.3,21.3H106.7v298.7h298.7V256c0-11.8,9.5-21.3,21.3-21.3c11.8,0,21.3,9.6,21.3,21.3v149.3
				C448,428.9,428.9,448,405.3,448z"/>
		</g>
		<g>
			<g>
				<path d="M290,289L290,289c-5.7,0-11.1-2.2-15.1-6.2l-45.2-45.3c-8.3-8.3-8.3-21.8,0-30.2L357.9,79.1c20.8-20.8,54.6-20.8,75.4,0
					c10.1,10.1,15.6,23.5,15.6,37.7c0,14.3-5.5,27.6-15.6,37.7L305.1,282.8C301.1,286.8,295.7,289,290,289z M274.9,222.4l15.1,15.1
					l113.1-113.1c2.7-2.7,3.1-5.9,3.1-7.5c0-1.6-0.4-4.8-3.1-7.5c-4.2-4.1-10.9-4.1-15.1,0L274.9,222.4z"/>
			</g>
			<g>
				<path d="M244.8,334.3h-45.2c-11.8,0-21.3-9.5-21.3-21.3v-45.2c0-8.6,5.2-16.4,13.2-19.7c8-3.3,17.1-1.5,23.2,4.6l45.2,45.2
					c6.1,6.1,7.9,15.3,4.6,23.2C261.2,329.1,253.4,334.3,244.8,334.3z"/>
			</g>
		</g>
	</g>
</g>
</svg>
