<?xml version="1.0" encoding="utf-8"?>
<!-- Generator: Adobe Illustrator 26.2.1, SVG Export Plug-In . SVG Version: 6.00 Build 0)  -->
<svg version="1.1" id="Line_1" xmlns="http://www.w3.org/2000/svg" xmlns:xlink="http://www.w3.org/1999/xlink" x="0px" y="0px"
	 viewBox="0 0 512 512" style="enable-background:new 0 0 512 512;" xml:space="preserve">
<style type="text/css">
	.st0{fill:none;stroke:#000000;stroke-width:2;stroke-linecap:round;stroke-miterlimit:10;}
</style>
<g>
	<path class="st0" d="M448,405.3"/>
	<path class="st0" d="M64,405.3"/>
	<g>
		<path d="M405.3,448h-64c-23.5,0-42.7-19.1-42.7-42.7V298.7h-85.3v106.7c0,23.5-19.1,42.7-42.7,42.7h-64
			C83.1,448,64,428.9,64,405.3V243.9c0-11.8,4.9-23.1,13.5-31.1l149.3-140c16.4-15.3,42-15.3,58.4,0l37.4,35.1
			c8.6,8.1,9,21.6,1,30.2c-8.1,8.6-21.6,9-30.1,1l-37.4-35l-149.3,140v161.4h64V298.7c0-23.5,19.1-42.7,42.7-42.7h85.3
			c23.5,0,42.7,19.1,42.7,42.7v106.7h64V243.9l-32.7-30.7c-8.6-8.1-9-21.6-1-30.2c8-8.6,21.6-9,30.1-1l32.7,30.7
			c8.6,8,13.5,19.4,13.5,31.1v161.4C448,428.9,428.9,448,405.3,448z"/>
	</g>
</g>
</svg>
