<?xml version="1.0" encoding="utf-8"?>
<!-- Generator: Adobe Illustrator 26.2.1, SVG Export Plug-In . SVG Version: 6.00 Build 0)  -->
<svg version="1.1" xmlns="http://www.w3.org/2000/svg" xmlns:xlink="http://www.w3.org/1999/xlink" x="0px" y="0px"
	 viewBox="0 0 512 512" style="enable-background:new 0 0 512 512;" xml:space="preserve">
<style type="text/css">
	.st0{fill:none;stroke:#000000;stroke-width:2;stroke-linecap:round;stroke-miterlimit:10;}
</style>
<g id="Grid">
</g>
<g id="lock">
	<g>
		<path class="st0" d="M448,405.3"/>
		<path class="st0" d="M448,405.3"/>
		<g>
			<path d="M404.2,192h-9.5v-42.7c0-47.1-38.3-85.3-85.3-85.3H202.7c-47.1,0-85.3,38.3-85.3,85.3V192h-9.5
				C83.7,192,64,211.7,64,235.8v168.4c0,24.2,19.7,43.8,43.8,43.8h296.4c24.2,0,43.8-19.6,43.8-43.8V235.8
				C448,211.7,428.4,192,404.2,192z M160,149.3c0-23.5,19.1-42.7,42.7-42.7h106.7c23.5,0,42.7,19.1,42.7,42.7V192H160V149.3z
				 M405.3,404.2c0,0.6-0.5,1.1-1.1,1.1l-297.5-1.1l1.2-169.5l297.5,1.2V404.2z"/>
			<path d="M256,384c35.3,0,64-28.7,64-64s-28.7-64-64-64s-64,28.7-64,64S220.7,384,256,384z M256,298.7c11.8,0,21.3,9.6,21.3,21.3
				s-9.6,21.3-21.3,21.3c-11.8,0-21.3-9.6-21.3-21.3S244.2,298.7,256,298.7z"/>
		</g>
	</g>
</g>
</svg>
