<?xml version="1.0" encoding="utf-8"?>
<!-- Generator: Adobe Illustrator 26.2.1, SVG Export Plug-In . SVG Version: 6.00 Build 0)  -->
<svg version="1.1" id="folder" xmlns="http://www.w3.org/2000/svg" xmlns:xlink="http://www.w3.org/1999/xlink" x="0px" y="0px"
	 viewBox="0 0 512 512" style="enable-background:new 0 0 512 512;" xml:space="preserve">
<g>
	<g>
		<path d="M357.3,277.3V170.7c0-9.9-6.9-17.8-16-20.3v-43.7c0-23.5-19.1-42.7-42.7-42.7h-85.3c-23.5,0-42.7,19.1-42.7,42.7v43.7
			c-9.1,2.4-16,10.4-16,20.3v106.7c0,11.8,9.6,21.3,21.3,21.3h160C347.8,298.7,357.3,289.1,357.3,277.3z M298.7,106.7v42.7h-85.3
			v-42.7H298.7z M314.7,256H197.3v-64h117.3V256z"/>
		<path d="M164.4,347.6c-8.3-8.3-21.8-8.3-30.2,0l-16.9,16.9l-16.9-16.9c-8.3-8.3-21.8-8.3-30.2,0c-8.3,8.3-8.3,21.8,0,30.2
			l16.9,16.9l-16.9,16.9c-8.3,8.3-8.3,21.8,0,30.2c4.2,4.2,9.6,6.2,15.1,6.2c5.5,0,10.9-2.1,15.1-6.2l16.9-16.9l16.9,16.9
			c4.2,4.2,9.6,6.2,15.1,6.2c5.5,0,10.9-2.1,15.1-6.2c8.3-8.3,8.3-21.8,0-30.2l-16.9-16.9l16.9-16.9
			C172.8,369.4,172.8,355.9,164.4,347.6z"/>
		<path d="M303.1,347.6c-8.3-8.3-21.8-8.3-30.2,0L256,364.5l-16.9-16.9c-8.3-8.3-21.8-8.3-30.2,0c-8.3,8.3-8.3,21.8,0,30.2
			l16.9,16.9l-16.9,16.9c-8.3,8.3-8.3,21.8,0,30.2c4.2,4.2,9.6,6.2,15.1,6.2s10.9-2.1,15.1-6.2l16.9-16.9l16.9,16.9
			c4.2,4.2,9.6,6.2,15.1,6.2s10.9-2.1,15.1-6.2c8.3-8.3,8.3-21.8,0-30.2l-16.9-16.9l16.9-16.9C311.4,369.4,311.4,355.9,303.1,347.6z
			"/>
		<path d="M424.8,394.7l16.9-16.9c8.3-8.3,8.3-21.8,0-30.2c-8.3-8.3-21.8-8.3-30.2,0l-16.9,16.9l-16.9-16.9
			c-8.3-8.3-21.8-8.3-30.2,0c-8.3,8.3-8.3,21.8,0,30.2l16.9,16.9l-16.9,16.9c-8.3,8.3-8.3,21.8,0,30.2c4.2,4.2,9.6,6.2,15.1,6.2
			c5.5,0,10.9-2.1,15.1-6.2l16.9-16.9l16.9,16.9c4.2,4.2,9.6,6.2,15.1,6.2c5.5,0,10.9-2.1,15.1-6.2c8.3-8.3,8.3-21.8,0-30.2
			L424.8,394.7z"/>
	</g>
</g>
</svg>
